<svg id="my-svg" width="100%" xmlns="http://www.w3.org/2000/svg" xmlns:xlink="http://www.w3.org/1999/xlink" style="max-width: 2790px; background-color: transparent;" viewBox="100 -61 2790 815.5999755859375" role="graphics-document document" aria-roledescription="timeline"><style>#my-svg{font-family:"trebuchet ms",verdana,arial,sans-serif;font-size:16px;fill:#333;}@keyframes edge-animation-frame{from{stroke-dashoffset:0;}}@keyframes dash{to{stroke-dashoffset:0;}}#my-svg .edge-animation-slow{stroke-dasharray:9,5!important;stroke-dashoffset:900;animation:dash 50s linear infinite;stroke-linecap:round;}#my-svg .edge-animation-fast{stroke-dasharray:9,5!important;stroke-dashoffset:900;animation:dash 20s linear infinite;stroke-linecap:round;}#my-svg .error-icon{fill:#552222;}#my-svg .error-text{fill:#552222;stroke:#552222;}#my-svg .edge-thickness-normal{stroke-width:1px;}#my-svg .edge-thickness-thick{stroke-width:3.5px;}#my-svg .edge-pattern-solid{stroke-dasharray:0;}#my-svg .edge-thickness-invisible{stroke-width:0;fill:none;}#my-svg .edge-pattern-dashed{stroke-dasharray:3;}#my-svg .edge-pattern-dotted{stroke-dasharray:2;}#my-svg .marker{fill:#333333;stroke:#333333;}#my-svg .marker.cross{stroke:#333333;}#my-svg svg{font-family:"trebuchet ms",verdana,arial,sans-serif;font-size:16px;}#my-svg p{margin:0;}#my-svg .edge{stroke-width:3;}#my-svg .section--1 rect,#my-svg .section--1 path,#my-svg .section--1 circle,#my-svg .section--1 path{fill:hsl(240, 100%, 76.2745098039%);}#my-svg .section--1 text{fill:#ffffff;}#my-svg .node-icon--1{font-size:40px;color:#ffffff;}#my-svg .section-edge--1{stroke:hsl(240, 100%, 76.2745098039%);}#my-svg .edge-depth--1{stroke-width:17;}#my-svg .section--1 line{stroke:hsl(60, 100%, 86.2745098039%);stroke-width:3;}#my-svg .lineWrapper line{stroke:#ffffff;}#my-svg .disabled,#my-svg .disabled circle,#my-svg .disabled text{fill:lightgray;}#my-svg .disabled text{fill:#efefef;}#my-svg .section-0 rect,#my-svg .section-0 path,#my-svg .section-0 circle,#my-svg .section-0 path{fill:hsl(60, 100%, 73.5294117647%);}#my-svg .section-0 text{fill:black;}#my-svg .node-icon-0{font-size:40px;color:black;}#my-svg .section-edge-0{stroke:hsl(60, 100%, 73.5294117647%);}#my-svg .edge-depth-0{stroke-width:14;}#my-svg .section-0 line{stroke:hsl(240, 100%, 83.5294117647%);stroke-width:3;}#my-svg .lineWrapper line{stroke:black;}#my-svg .disabled,#my-svg .disabled circle,#my-svg .disabled text{fill:lightgray;}#my-svg .disabled text{fill:#efefef;}#my-svg .section-1 rect,#my-svg .section-1 path,#my-svg .section-1 circle,#my-svg .section-1 path{fill:hsl(80, 100%, 76.2745098039%);}#my-svg .section-1 text{fill:black;}#my-svg .node-icon-1{font-size:40px;color:black;}#my-svg .section-edge-1{stroke:hsl(80, 100%, 76.2745098039%);}#my-svg .edge-depth-1{stroke-width:11;}#my-svg .section-1 line{stroke:hsl(260, 100%, 86.2745098039%);stroke-width:3;}#my-svg .lineWrapper line{stroke:black;}#my-svg .disabled,#my-svg .disabled circle,#my-svg .disabled text{fill:lightgray;}#my-svg .disabled text{fill:#efefef;}#my-svg .section-2 rect,#my-svg .section-2 path,#my-svg .section-2 circle,#my-svg .section-2 path{fill:hsl(270, 100%, 76.2745098039%);}#my-svg .section-2 text{fill:#ffffff;}#my-svg .node-icon-2{font-size:40px;color:#ffffff;}#my-svg .section-edge-2{stroke:hsl(270, 100%, 76.2745098039%);}#my-svg .edge-depth-2{stroke-width:8;}#my-svg .section-2 line{stroke:hsl(90, 100%, 86.2745098039%);stroke-width:3;}#my-svg .lineWrapper line{stroke:#ffffff;}#my-svg .disabled,#my-svg .disabled circle,#my-svg .disabled text{fill:lightgray;}#my-svg .disabled text{fill:#efefef;}#my-svg .section-3 rect,#my-svg .section-3 path,#my-svg .section-3 circle,#my-svg .section-3 path{fill:hsl(300, 100%, 76.2745098039%);}#my-svg .section-3 text{fill:black;}#my-svg .node-icon-3{font-size:40px;color:black;}#my-svg .section-edge-3{stroke:hsl(300, 100%, 76.2745098039%);}#my-svg .edge-depth-3{stroke-width:5;}#my-svg .section-3 line{stroke:hsl(120, 100%, 86.2745098039%);stroke-width:3;}#my-svg .lineWrapper line{stroke:black;}#my-svg .disabled,#my-svg .disabled circle,#my-svg .disabled text{fill:lightgray;}#my-svg .disabled text{fill:#efefef;}#my-svg .section-4 rect,#my-svg .section-4 path,#my-svg .section-4 circle,#my-svg .section-4 path{fill:hsl(330, 100%, 76.2745098039%);}#my-svg .section-4 text{fill:black;}#my-svg .node-icon-4{font-size:40px;color:black;}#my-svg .section-edge-4{stroke:hsl(330, 100%, 76.2745098039%);}#my-svg .edge-depth-4{stroke-width:2;}#my-svg .section-4 line{stroke:hsl(150, 100%, 86.2745098039%);stroke-width:3;}#my-svg .lineWrapper line{stroke:black;}#my-svg .disabled,#my-svg .disabled circle,#my-svg .disabled text{fill:lightgray;}#my-svg .disabled text{fill:#efefef;}#my-svg .section-5 rect,#my-svg .section-5 path,#my-svg .section-5 circle,#my-svg .section-5 path{fill:hsl(0, 100%, 76.2745098039%);}#my-svg .section-5 text{fill:black;}#my-svg .node-icon-5{font-size:40px;color:black;}#my-svg .section-edge-5{stroke:hsl(0, 100%, 76.2745098039%);}#my-svg .edge-depth-5{stroke-width:-1;}#my-svg .section-5 line{stroke:hsl(180, 100%, 86.2745098039%);stroke-width:3;}#my-svg .lineWrapper line{stroke:black;}#my-svg .disabled,#my-svg .disabled circle,#my-svg .disabled text{fill:lightgray;}#my-svg .disabled text{fill:#efefef;}#my-svg .section-6 rect,#my-svg .section-6 path,#my-svg .section-6 circle,#my-svg .section-6 path{fill:hsl(30, 100%, 76.2745098039%);}#my-svg .section-6 text{fill:black;}#my-svg .node-icon-6{font-size:40px;color:black;}#my-svg .section-edge-6{stroke:hsl(30, 100%, 76.2745098039%);}#my-svg .edge-depth-6{stroke-width:-4;}#my-svg .section-6 line{stroke:hsl(210, 100%, 86.2745098039%);stroke-width:3;}#my-svg .lineWrapper line{stroke:black;}#my-svg .disabled,#my-svg .disabled circle,#my-svg .disabled text{fill:lightgray;}#my-svg .disabled text{fill:#efefef;}#my-svg .section-7 rect,#my-svg .section-7 path,#my-svg .section-7 circle,#my-svg .section-7 path{fill:hsl(90, 100%, 76.2745098039%);}#my-svg .section-7 text{fill:black;}#my-svg .node-icon-7{font-size:40px;color:black;}#my-svg .section-edge-7{stroke:hsl(90, 100%, 76.2745098039%);}#my-svg .edge-depth-7{stroke-width:-7;}#my-svg .section-7 line{stroke:hsl(270, 100%, 86.2745098039%);stroke-width:3;}#my-svg .lineWrapper line{stroke:black;}#my-svg .disabled,#my-svg .disabled circle,#my-svg .disabled text{fill:lightgray;}#my-svg .disabled text{fill:#efefef;}#my-svg .section-8 rect,#my-svg .section-8 path,#my-svg .section-8 circle,#my-svg .section-8 path{fill:hsl(150, 100%, 76.2745098039%);}#my-svg .section-8 text{fill:black;}#my-svg .node-icon-8{font-size:40px;color:black;}#my-svg .section-edge-8{stroke:hsl(150, 100%, 76.2745098039%);}#my-svg .edge-depth-8{stroke-width:-10;}#my-svg .section-8 line{stroke:hsl(330, 100%, 86.2745098039%);stroke-width:3;}#my-svg .lineWrapper line{stroke:black;}#my-svg .disabled,#my-svg .disabled circle,#my-svg .disabled text{fill:lightgray;}#my-svg .disabled text{fill:#efefef;}#my-svg .section-9 rect,#my-svg .section-9 path,#my-svg .section-9 circle,#my-svg .section-9 path{fill:hsl(180, 100%, 76.2745098039%);}#my-svg .section-9 text{fill:black;}#my-svg .node-icon-9{font-size:40px;color:black;}#my-svg .section-edge-9{stroke:hsl(180, 100%, 76.2745098039%);}#my-svg .edge-depth-9{stroke-width:-13;}#my-svg .section-9 line{stroke:hsl(0, 100%, 86.2745098039%);stroke-width:3;}#my-svg .lineWrapper line{stroke:black;}#my-svg .disabled,#my-svg .disabled circle,#my-svg .disabled text{fill:lightgray;}#my-svg .disabled text{fill:#efefef;}#my-svg .section-10 rect,#my-svg .section-10 path,#my-svg .section-10 circle,#my-svg .section-10 path{fill:hsl(210, 100%, 76.2745098039%);}#my-svg .section-10 text{fill:black;}#my-svg .node-icon-10{font-size:40px;color:black;}#my-svg .section-edge-10{stroke:hsl(210, 100%, 76.2745098039%);}#my-svg .edge-depth-10{stroke-width:-16;}#my-svg .section-10 line{stroke:hsl(30, 100%, 86.2745098039%);stroke-width:3;}#my-svg .lineWrapper line{stroke:black;}#my-svg .disabled,#my-svg .disabled circle,#my-svg .disabled text{fill:lightgray;}#my-svg .disabled text{fill:#efefef;}#my-svg .section-root rect,#my-svg .section-root path,#my-svg .section-root circle{fill:hsl(240, 100%, 46.2745098039%);}#my-svg .section-root text{fill:#ffffff;}#my-svg .icon-container{height:100%;display:flex;justify-content:center;align-items:center;}#my-svg .edge{fill:none;}#my-svg .eventWrapper{filter:brightness(120%);}#my-svg :root{--mermaid-font-family:"trebuchet ms",verdana,arial,sans-serif;}</style><g/><g/><defs><marker id="arrowhead" refX="5" refY="2" markerWidth="6" markerHeight="4" orient="auto"><path d="M 0,0 V 4 L6,2 Z"/></marker></defs><g transform="translate(200, 50)"><g class="timeline-node section--1"><g><path id="node-undefined" class="node-bkg node-undefined" d="M0 80.39999847412109 v-75.39999847412109 q0,-5 5,-5 h580 q5,0 5,5 v80.39999847412109 H0 Z"/><line class="node-line--1" x1="0" y1="85.39999847412109" x2="590" y2="85.39999847412109"/></g><g transform="translate(295, 10)"><text dy="1em" alignment-baseline="middle" dominant-baseline="middle" text-anchor="middle"><tspan x="0" dy="1em">Era   ARPANET   (1969-1983)</tspan></text></g></g></g><g class="taskWrapper" transform="translate(200, 185.3999984741211)"><g class="timeline-node section--1"><g><path id="node-undefined" class="node-bkg node-undefined" d="M0 62.8 v-57.8 q0,-5 5,-5 h180 q5,0 5,5 v62.8 H0 Z"/><line class="node-line--1" x1="0" y1="67.8" x2="190" y2="67.8"/></g><g transform="translate(95, 10)"><text dy="1em" alignment-baseline="middle" dominant-baseline="middle" text-anchor="middle"><tspan x="0" dy="1em">1969</tspan></text></g></g></g><g class="lineWrapper"><line x1="295" y1="253.19999847412112" x2="295" y2="704.5999908447266" stroke-width="2" stroke="black" marker-end="url(#arrowhead)" stroke-dasharray="5,5"/></g><g class="eventWrapper" transform="translate(200, 385.3999984741211)"><g class="timeline-node section--1"><g><path id="node-undefined" class="node-bkg node-undefined" d="M0 45 v-40 q0,-5 5,-5 h180 q5,0 5,5 v45 H0 Z"/><line class="node-line--1" x1="0" y1="50" x2="190" y2="50"/></g><g transform="translate(95, 10)"><text dy="1em" alignment-baseline="middle" dominant-baseline="middle" text-anchor="middle"><tspan x="0" dy="1em">Nace   ARPANET</tspan></text></g></g></g><g class="eventWrapper" transform="translate(200, 445.3999984741211)"><g class="timeline-node section--1"><g><path id="node-undefined" class="node-bkg node-undefined" d="M0 95.59999542236328 v-90.59999542236328 q0,-5 5,-5 h180 q5,0 5,5 v95.59999542236328 H0 Z"/><line class="node-line--1" x1="0" y1="100.59999542236328" x2="190" y2="100.59999542236328"/></g><g transform="translate(95, 10)"><text dy="1em" alignment-baseline="middle" dominant-baseline="middle" text-anchor="middle"><tspan x="0" dy="1em">4   nodos   iniciales</tspan><tspan x="0" dy="1.1em">(UCLA,   Stanford,   UC</tspan><tspan x="0" dy="1.1em">Santa   Bárbara,</tspan><tspan x="0" dy="1.1em">Utah)</tspan></text></g></g></g><g class="eventWrapper" transform="translate(200, 555.9999938964844)"><g class="timeline-node section--1"><g><path id="node-undefined" class="node-bkg node-undefined" d="M0 77.99999694824218 v-72.99999694824218 q0,-5 5,-5 h180 q5,0 5,5 v77.99999694824218 H0 Z"/><line class="node-line--1" x1="0" y1="82.99999694824218" x2="190" y2="82.99999694824218"/></g><g transform="translate(95, 10)"><text dy="1em" alignment-baseline="middle" dominant-baseline="middle" text-anchor="middle"><tspan x="0" dy="1em">Implementación   de</tspan><tspan x="0" dy="1.1em">conmutación   de</tspan><tspan x="0" dy="1.1em">paquetes</tspan></text></g></g></g><g class="taskWrapper" transform="translate(400, 185.3999984741211)"><g class="timeline-node section--1"><g><path id="node-undefined" class="node-bkg node-undefined" d="M0 62.8 v-57.8 q0,-5 5,-5 h180 q5,0 5,5 v62.8 H0 Z"/><line class="node-line--1" x1="0" y1="67.8" x2="190" y2="67.8"/></g><g transform="translate(95, 10)"><text dy="1em" alignment-baseline="middle" dominant-baseline="middle" text-anchor="middle"><tspan x="0" dy="1em">1973</tspan></text></g></g></g><g class="lineWrapper"><line x1="495" y1="253.19999847412112" x2="495" y2="704.5999908447266" stroke-width="2" stroke="black" marker-end="url(#arrowhead)" stroke-dasharray="5,5"/></g><g class="eventWrapper" transform="translate(400, 385.3999984741211)"><g class="timeline-node section--1"><g><path id="node-undefined" class="node-bkg node-undefined" d="M0 60.39999847412109 v-55.39999847412109 q0,-5 5,-5 h180 q5,0 5,5 v60.39999847412109 H0 Z"/><line class="node-line--1" x1="0" y1="65.39999847412109" x2="190" y2="65.39999847412109"/></g><g transform="translate(95, 10)"><text dy="1em" alignment-baseline="middle" dominant-baseline="middle" text-anchor="middle"><tspan x="0" dy="1em">Primera   conexión</tspan><tspan x="0" dy="1.1em">internacional</tspan></text></g></g></g><g class="taskWrapper" transform="translate(600, 185.3999984741211)"><g class="timeline-node section--1"><g><path id="node-undefined" class="node-bkg node-undefined" d="M0 62.8 v-57.8 q0,-5 5,-5 h180 q5,0 5,5 v62.8 H0 Z"/><line class="node-line--1" x1="0" y1="67.8" x2="190" y2="67.8"/></g><g transform="translate(95, 10)"><text dy="1em" alignment-baseline="middle" dominant-baseline="middle" text-anchor="middle"><tspan x="0" dy="1em">1983</tspan></text></g></g></g><g class="lineWrapper"><line x1="695" y1="253.19999847412112" x2="695" y2="704.5999908447266" stroke-width="2" stroke="black" marker-end="url(#arrowhead)" stroke-dasharray="5,5"/></g><g class="eventWrapper" transform="translate(600, 385.3999984741211)"><g class="timeline-node section--1"><g><path id="node-undefined" class="node-bkg node-undefined" d="M0 60.39999847412109 v-55.39999847412109 q0,-5 5,-5 h180 q5,0 5,5 v60.39999847412109 H0 Z"/><line class="node-line--1" x1="0" y1="65.39999847412109" x2="190" y2="65.39999847412109"/></g><g transform="translate(95, 10)"><text dy="1em" alignment-baseline="middle" dominant-baseline="middle" text-anchor="middle"><tspan x="0" dy="1em">Adopción   oficial   de</tspan><tspan x="0" dy="1.1em">TCP/IP</tspan></text></g></g></g><g class="eventWrapper" transform="translate(600, 460.7999969482422)"><g class="timeline-node section--1"><g><path id="node-undefined" class="node-bkg node-undefined" d="M0 77.99999694824218 v-72.99999694824218 q0,-5 5,-5 h180 q5,0 5,5 v77.99999694824218 H0 Z"/><line class="node-line--1" x1="0" y1="82.99999694824218" x2="190" y2="82.99999694824218"/></g><g transform="translate(95, 10)"><text dy="1em" alignment-baseline="middle" dominant-baseline="middle" text-anchor="middle"><tspan x="0" dy="1em">División   de   ARPANET</tspan><tspan x="0" dy="1.1em">(creación   de</tspan><tspan x="0" dy="1.1em">MILNET)</tspan></text></g></g></g><g class="eventWrapper" transform="translate(600, 553.7999938964844)"><g class="timeline-node section--1"><g><path id="node-undefined" class="node-bkg node-undefined" d="M0 60.39999847412109 v-55.39999847412109 q0,-5 5,-5 h180 q5,0 5,5 v60.39999847412109 H0 Z"/><line class="node-line--1" x1="0" y1="65.39999847412109" x2="190" y2="65.39999847412109"/></g><g transform="translate(95, 10)"><text dy="1em" alignment-baseline="middle" dominant-baseline="middle" text-anchor="middle"><tspan x="0" dy="1em">Nace   el   término</tspan><tspan x="0" dy="1.1em">"Internet"</tspan></text></g></g></g><g transform="translate(800, 50)"><g class="timeline-node section-0"><g><path id="node-undefined" class="node-bkg node-undefined" d="M0 80.39999847412109 v-75.39999847412109 q0,-5 5,-5 h380 q5,0 5,5 v80.39999847412109 H0 Z"/><line class="node-line-0" x1="0" y1="85.39999847412109" x2="390" y2="85.39999847412109"/></g><g transform="translate(195, 10)"><text dy="1em" alignment-baseline="middle" dominant-baseline="middle" text-anchor="middle"><tspan x="0" dy="1em">Nacimiento   de   la   Web   (1989-1995)</tspan></text></g></g></g><g class="taskWrapper" transform="translate(800, 185.3999984741211)"><g class="timeline-node section-0"><g><path id="node-undefined" class="node-bkg node-undefined" d="M0 62.8 v-57.8 q0,-5 5,-5 h180 q5,0 5,5 v62.8 H0 Z"/><line class="node-line-0" x1="0" y1="67.8" x2="190" y2="67.8"/></g><g transform="translate(95, 10)"><text dy="1em" alignment-baseline="middle" dominant-baseline="middle" text-anchor="middle"><tspan x="0" dy="1em">1989-1990</tspan></text></g></g></g><g class="lineWrapper"><line x1="895" y1="253.19999847412112" x2="895" y2="704.5999908447266" stroke-width="2" stroke="black" marker-end="url(#arrowhead)" stroke-dasharray="5,5"/></g><g class="eventWrapper" transform="translate(800, 385.3999984741211)"><g class="timeline-node section-0"><g><path id="node-undefined" class="node-bkg node-undefined" d="M0 77.99999694824218 v-72.99999694824218 q0,-5 5,-5 h180 q5,0 5,5 v77.99999694824218 H0 Z"/><line class="node-line-0" x1="0" y1="82.99999694824218" x2="190" y2="82.99999694824218"/></g><g transform="translate(95, 10)"><text dy="1em" alignment-baseline="middle" dominant-baseline="middle" text-anchor="middle"><tspan x="0" dy="1em">Tim   Berners-Lee</tspan><tspan x="0" dy="1.1em">inventa   la   World</tspan><tspan x="0" dy="1.1em">Wide   Web</tspan></text></g></g></g><g class="eventWrapper" transform="translate(800, 478.3999954223633)"><g class="timeline-node section-0"><g><path id="node-undefined" class="node-bkg node-undefined" d="M0 60.39999847412109 v-55.39999847412109 q0,-5 5,-5 h180 q5,0 5,5 v60.39999847412109 H0 Z"/><line class="node-line-0" x1="0" y1="65.39999847412109" x2="190" y2="65.39999847412109"/></g><g transform="translate(95, 10)"><text dy="1em" alignment-baseline="middle" dominant-baseline="middle" text-anchor="middle"><tspan x="0" dy="1em">Desarrollo   de   HTTP,</tspan><tspan x="0" dy="1.1em">HTML   y   URLs</tspan></text></g></g></g><g class="taskWrapper" transform="translate(1000, 185.3999984741211)"><g class="timeline-node section-0"><g><path id="node-undefined" class="node-bkg node-undefined" d="M0 62.8 v-57.8 q0,-5 5,-5 h180 q5,0 5,5 v62.8 H0 Z"/><line class="node-line-0" x1="0" y1="67.8" x2="190" y2="67.8"/></g><g transform="translate(95, 10)"><text dy="1em" alignment-baseline="middle" dominant-baseline="middle" text-anchor="middle"><tspan x="0" dy="1em">1991</tspan></text></g></g></g><g class="lineWrapper"><line x1="1095" y1="253.19999847412112" x2="1095" y2="704.5999908447266" stroke-width="2" stroke="black" marker-end="url(#arrowhead)" stroke-dasharray="5,5"/></g><g class="eventWrapper" transform="translate(1000, 385.3999984741211)"><g class="timeline-node section-0"><g><path id="node-undefined" class="node-bkg node-undefined" d="M0 60.39999847412109 v-55.39999847412109 q0,-5 5,-5 h180 q5,0 5,5 v60.39999847412109 H0 Z"/><line class="node-line-0" x1="0" y1="65.39999847412109" x2="190" y2="65.39999847412109"/></g><g transform="translate(95, 10)"><text dy="1em" alignment-baseline="middle" dominant-baseline="middle" text-anchor="middle"><tspan x="0" dy="1em">Primer   sitio   web</tspan><tspan x="0" dy="1.1em">público</tspan></text></g></g></g><g transform="translate(1200, 50)"><g class="timeline-node section-1"><g><path id="node-undefined" class="node-bkg node-undefined" d="M0 80.39999847412109 v-75.39999847412109 q0,-5 5,-5 h580 q5,0 5,5 v80.39999847412109 H0 Z"/><line class="node-line-1" x1="0" y1="85.39999847412109" x2="590" y2="85.39999847412109"/></g><g transform="translate(295, 10)"><text dy="1em" alignment-baseline="middle" dominant-baseline="middle" text-anchor="middle"><tspan x="0" dy="1em">Era   Comercial   (1995-2000)</tspan></text></g></g></g><g class="taskWrapper" transform="translate(1200, 185.3999984741211)"><g class="timeline-node section-1"><g><path id="node-undefined" class="node-bkg node-undefined" d="M0 62.8 v-57.8 q0,-5 5,-5 h180 q5,0 5,5 v62.8 H0 Z"/><line class="node-line-1" x1="0" y1="67.8" x2="190" y2="67.8"/></g><g transform="translate(95, 10)"><text dy="1em" alignment-baseline="middle" dominant-baseline="middle" text-anchor="middle"><tspan x="0" dy="1em">1995</tspan></text></g></g></g><g class="lineWrapper"><line x1="1295" y1="253.19999847412112" x2="1295" y2="704.5999908447266" stroke-width="2" stroke="black" marker-end="url(#arrowhead)" stroke-dasharray="5,5"/></g><g class="eventWrapper" transform="translate(1200, 385.3999984741211)"><g class="timeline-node section-1"><g><path id="node-undefined" class="node-bkg node-undefined" d="M0 77.99999694824218 v-72.99999694824218 q0,-5 5,-5 h180 q5,0 5,5 v77.99999694824218 H0 Z"/><line class="node-line-1" x1="0" y1="82.99999694824218" x2="190" y2="82.99999694824218"/></g><g transform="translate(95, 10)"><text dy="1em" alignment-baseline="middle" dominant-baseline="middle" text-anchor="middle"><tspan x="0" dy="1em">Eliminación   de</tspan><tspan x="0" dy="1.1em">restricciones</tspan><tspan x="0" dy="1.1em">comerciales</tspan></text></g></g></g><g class="eventWrapper" transform="translate(1200, 478.3999954223633)"><g class="timeline-node section-1"><g><path id="node-undefined" class="node-bkg node-undefined" d="M0 60.39999847412109 v-55.39999847412109 q0,-5 5,-5 h180 q5,0 5,5 v60.39999847412109 H0 Z"/><line class="node-line-1" x1="0" y1="65.39999847412109" x2="190" y2="65.39999847412109"/></g><g transform="translate(95, 10)"><text dy="1em" alignment-baseline="middle" dominant-baseline="middle" text-anchor="middle"><tspan x="0" dy="1em">Primeros   ISPs</tspan><tspan x="0" dy="1.1em">comerciales   (AOL)</tspan></text></g></g></g><g class="eventWrapper" transform="translate(1200, 553.7999938964844)"><g class="timeline-node section-1"><g><path id="node-undefined" class="node-bkg node-undefined" d="M0 60.39999847412109 v-55.39999847412109 q0,-5 5,-5 h180 q5,0 5,5 v60.39999847412109 H0 Z"/><line class="node-line-1" x1="0" y1="65.39999847412109" x2="190" y2="65.39999847412109"/></g><g transform="translate(95, 10)"><text dy="1em" alignment-baseline="middle" dominant-baseline="middle" text-anchor="middle"><tspan x="0" dy="1em">Aparecen   Amazon   y</tspan><tspan x="0" dy="1.1em">eBay</tspan></text></g></g></g><g class="taskWrapper" transform="translate(1400, 185.3999984741211)"><g class="timeline-node section-1"><g><path id="node-undefined" class="node-bkg node-undefined" d="M0 62.8 v-57.8 q0,-5 5,-5 h180 q5,0 5,5 v62.8 H0 Z"/><line class="node-line-1" x1="0" y1="67.8" x2="190" y2="67.8"/></g><g transform="translate(95, 10)"><text dy="1em" alignment-baseline="middle" dominant-baseline="middle" text-anchor="middle"><tspan x="0" dy="1em">1998</tspan></text></g></g></g><g class="lineWrapper"><line x1="1495" y1="253.19999847412112" x2="1495" y2="704.5999908447266" stroke-width="2" stroke="black" marker-end="url(#arrowhead)" stroke-dasharray="5,5"/></g><g class="eventWrapper" transform="translate(1400, 385.3999984741211)"><g class="timeline-node section-1"><g><path id="node-undefined" class="node-bkg node-undefined" d="M0 45 v-40 q0,-5 5,-5 h180 q5,0 5,5 v45 H0 Z"/><line class="node-line-1" x1="0" y1="50" x2="190" y2="50"/></g><g transform="translate(95, 10)"><text dy="1em" alignment-baseline="middle" dominant-baseline="middle" text-anchor="middle"><tspan x="0" dy="1em">Fundación   de   Google</tspan></text></g></g></g><g class="taskWrapper" transform="translate(1600, 185.3999984741211)"><g class="timeline-node section-1"><g><path id="node-undefined" class="node-bkg node-undefined" d="M0 62.8 v-57.8 q0,-5 5,-5 h180 q5,0 5,5 v62.8 H0 Z"/><line class="node-line-1" x1="0" y1="67.8" x2="190" y2="67.8"/></g><g transform="translate(95, 10)"><text dy="1em" alignment-baseline="middle" dominant-baseline="middle" text-anchor="middle"><tspan x="0" dy="1em">2000-2001</tspan></text></g></g></g><g class="lineWrapper"><line x1="1695" y1="253.19999847412112" x2="1695" y2="704.5999908447266" stroke-width="2" stroke="black" marker-end="url(#arrowhead)" stroke-dasharray="5,5"/></g><g class="eventWrapper" transform="translate(1600, 385.3999984741211)"><g class="timeline-node section-1"><g><path id="node-undefined" class="node-bkg node-undefined" d="M0 60.39999847412109 v-55.39999847412109 q0,-5 5,-5 h180 q5,0 5,5 v60.39999847412109 H0 Z"/><line class="node-line-1" x1="0" y1="65.39999847412109" x2="190" y2="65.39999847412109"/></g><g transform="translate(95, 10)"><text dy="1em" alignment-baseline="middle" dominant-baseline="middle" text-anchor="middle"><tspan x="0" dy="1em">Explosión   de   la</tspan><tspan x="0" dy="1.1em">burbuja   punto-com</tspan></text></g></g></g><g transform="translate(1800, 50)"><g class="timeline-node section-2"><g><path id="node-undefined" class="node-bkg node-undefined" d="M0 80.39999847412109 v-75.39999847412109 q0,-5 5,-5 h380 q5,0 5,5 v80.39999847412109 H0 Z"/><line class="node-line-2" x1="0" y1="85.39999847412109" x2="390" y2="85.39999847412109"/></g><g transform="translate(195, 10)"><text dy="1em" alignment-baseline="middle" dominant-baseline="middle" text-anchor="middle"><tspan x="0" dy="1em">Web   2.0   y   Redes   Sociales   (2003-2010)</tspan></text></g></g></g><g class="taskWrapper" transform="translate(1800, 185.3999984741211)"><g class="timeline-node section-2"><g><path id="node-undefined" class="node-bkg node-undefined" d="M0 62.8 v-57.8 q0,-5 5,-5 h180 q5,0 5,5 v62.8 H0 Z"/><line class="node-line-2" x1="0" y1="67.8" x2="190" y2="67.8"/></g><g transform="translate(95, 10)"><text dy="1em" alignment-baseline="middle" dominant-baseline="middle" text-anchor="middle"><tspan x="0" dy="1em">2003-2006</tspan></text></g></g></g><g class="lineWrapper"><line x1="1895" y1="253.19999847412112" x2="1895" y2="704.5999908447266" stroke-width="2" stroke="black" marker-end="url(#arrowhead)" stroke-dasharray="5,5"/></g><g class="eventWrapper" transform="translate(1800, 385.3999984741211)"><g class="timeline-node section-2"><g><path id="node-undefined" class="node-bkg node-undefined" d="M0 45 v-40 q0,-5 5,-5 h180 q5,0 5,5 v45 H0 Z"/><line class="node-line-2" x1="0" y1="50" x2="190" y2="50"/></g><g transform="translate(95, 10)"><text dy="1em" alignment-baseline="middle" dominant-baseline="middle" text-anchor="middle"><tspan x="0" dy="1em">Redes   sociales</tspan></text></g></g></g><g class="taskWrapper" transform="translate(2000, 185.3999984741211)"><g class="timeline-node section-2"><g><path id="node-undefined" class="node-bkg node-undefined" d="M0 62.8 v-57.8 q0,-5 5,-5 h180 q5,0 5,5 v62.8 H0 Z"/><line class="node-line-2" x1="0" y1="67.8" x2="190" y2="67.8"/></g><g transform="translate(95, 10)"><text dy="1em" alignment-baseline="middle" dominant-baseline="middle" text-anchor="middle"><tspan x="0" dy="1em">2007</tspan></text></g></g></g><g class="lineWrapper"><line x1="2095" y1="253.19999847412112" x2="2095" y2="704.5999908447266" stroke-width="2" stroke="black" marker-end="url(#arrowhead)" stroke-dasharray="5,5"/></g><g class="eventWrapper" transform="translate(2000, 385.3999984741211)"><g class="timeline-node section-2"><g><path id="node-undefined" class="node-bkg node-undefined" d="M0 60.39999847412109 v-55.39999847412109 q0,-5 5,-5 h180 q5,0 5,5 v60.39999847412109 H0 Z"/><line class="node-line-2" x1="0" y1="65.39999847412109" x2="190" y2="65.39999847412109"/></g><g transform="translate(95, 10)"><text dy="1em" alignment-baseline="middle" dominant-baseline="middle" text-anchor="middle"><tspan x="0" dy="1em">Lanzamiento   del</tspan><tspan x="0" dy="1.1em">iPhone</tspan></text></g></g></g><g transform="translate(2200, 50)"><g class="timeline-node section-3"><g><path id="node-undefined" class="node-bkg node-undefined" d="M0 80.39999847412109 v-75.39999847412109 q0,-5 5,-5 h380 q5,0 5,5 v80.39999847412109 H0 Z"/><line class="node-line-3" x1="0" y1="85.39999847412109" x2="390" y2="85.39999847412109"/></g><g transform="translate(195, 10)"><text dy="1em" alignment-baseline="middle" dominant-baseline="middle" text-anchor="middle"><tspan x="0" dy="1em">Era   Moderna   (2010-2025)</tspan></text></g></g></g><g class="taskWrapper" transform="translate(2200, 185.3999984741211)"><g class="timeline-node section-3"><g><path id="node-undefined" class="node-bkg node-undefined" d="M0 62.8 v-57.8 q0,-5 5,-5 h180 q5,0 5,5 v62.8 H0 Z"/><line class="node-line-3" x1="0" y1="67.8" x2="190" y2="67.8"/></g><g transform="translate(95, 10)"><text dy="1em" alignment-baseline="middle" dominant-baseline="middle" text-anchor="middle"><tspan x="0" dy="1em">2010s</tspan></text></g></g></g><g class="lineWrapper"><line x1="2295" y1="253.19999847412112" x2="2295" y2="704.5999908447266" stroke-width="2" stroke="black" marker-end="url(#arrowhead)" stroke-dasharray="5,5"/></g><g class="eventWrapper" transform="translate(2200, 385.3999984741211)"><g class="timeline-node section-3"><g><path id="node-undefined" class="node-bkg node-undefined" d="M0 77.99999694824218 v-72.99999694824218 q0,-5 5,-5 h180 q5,0 5,5 v77.99999694824218 H0 Z"/><line class="node-line-3" x1="0" y1="82.99999694824218" x2="190" y2="82.99999694824218"/></g><g transform="translate(95, 10)"><text dy="1em" alignment-baseline="middle" dominant-baseline="middle" text-anchor="middle"><tspan x="0" dy="1em">Computación   en   la</tspan><tspan x="0" dy="1.1em">nube,   Internet   de</tspan><tspan x="0" dy="1.1em">las   cosas</tspan></text></g></g></g><g class="taskWrapper" transform="translate(2400, 185.3999984741211)"><g class="timeline-node section-3"><g><path id="node-undefined" class="node-bkg node-undefined" d="M0 62.8 v-57.8 q0,-5 5,-5 h180 q5,0 5,5 v62.8 H0 Z"/><line class="node-line-3" x1="0" y1="67.8" x2="190" y2="67.8"/></g><g transform="translate(95, 10)"><text dy="1em" alignment-baseline="middle" dominant-baseline="middle" text-anchor="middle"><tspan x="0" dy="1em">2020s</tspan></text></g></g></g><g class="lineWrapper"><line x1="2495" y1="253.19999847412112" x2="2495" y2="704.5999908447266" stroke-width="2" stroke="black" marker-end="url(#arrowhead)" stroke-dasharray="5,5"/></g><g class="eventWrapper" transform="translate(2400, 385.3999984741211)"><g class="timeline-node section-3"><g><path id="node-undefined" class="node-bkg node-undefined" d="M0 60.39999847412109 v-55.39999847412109 q0,-5 5,-5 h180 q5,0 5,5 v60.39999847412109 H0 Z"/><line class="node-line-3" x1="0" y1="65.39999847412109" x2="190" y2="65.39999847412109"/></g><g transform="translate(95, 10)"><text dy="1em" alignment-baseline="middle" dominant-baseline="middle" text-anchor="middle"><tspan x="0" dy="1em">Inteligencia</tspan><tspan x="0" dy="1.1em">Artificial</tspan></text></g></g></g><g class="eventWrapper" transform="translate(2400, 460.7999969482422)"><g class="timeline-node section-3"><g><path id="node-undefined" class="node-bkg node-undefined" d="M0 45 v-40 q0,-5 5,-5 h180 q5,0 5,5 v45 H0 Z"/><line class="node-line-3" x1="0" y1="50" x2="190" y2="50"/></g><g transform="translate(95, 10)"><text dy="1em" alignment-baseline="middle" dominant-baseline="middle" text-anchor="middle"><tspan x="0" dy="1em">Tecnología   5G</tspan></text></g></g></g><text x="1045" font-size="4ex" font-weight="bold" y="20">Evolución de Internet: De ARPANET a la Era Digital</text><g class="lineWrapper"><line x1="150" y1="303.1999984741211" x2="2840" y2="303.1999984741211" stroke-width="4" stroke="black" marker-end="url(#arrowhead)"/></g></svg>